# xmcd
# 
# Track frame offsets:
#     150
#     12187
#     28695
#     40595
#     57015
#     68867
#     79040
#     95712
#     106525
#     118875
#     130730
#     143380
#     156250
#     169362
#     181040
#     194792
#     208725
#     220117
#     232207
#     248225
# 
# Disc length: 3542
# 
# Revision: 0
# Processed by: cddbd v1.5.2PL0 Copyright (c) Steve Scherf et al.
# Submitted via: fre:ac v1.0.31
# 
DISCID=160dd414
DTITLE=Various Artist - Blue Bayou
DYEAR=0
DGENRE=Country
TTITLE0=Dolly Parton - Jolene
TTITLE1=Johnny Cash - A boy named Sue
TTITLE2=Charlie Rich - The Most Beautiful Girl in the World
TTITLE3=Gram Parsons - Love Hurts
TTITLE4=Willie Nelson - Funny how time slips away
TTITLE5=Kris Kristofferson - Help me make it through the night
TTITLE6=Tom T Hall - Mr Bojangles
TTITLE7=Frankie Laine - High Noon
TTITLE8=Hank Snow - I'm Movin' On
TTITLE9=Tammy Wynette - Stand By Your Man
TTITLE10=Charley Pride - Crystal Chandeliers
TTITLE11=Kenny Rogers and the First Edition - Ruby Don't Take Your Love To Town
TTITLE12=Waylon Jennings - Are you sure Hank done it this way
TTITLE13=Jim Reeves - Welcome to my world
TTITLE14=Tanya Tucker - What's your Mama's name
TTITLE15=George Jones - The Grand Tour
TTITLE16=Don Gibson - Sea of Heatbreak
TTITLE17=Bobby Bare - 500 Miles away from home
TTITLE18=Vince Gill - Cinderella
TTITLE19=Linda Ronstradt - Blue Bayou
EXTD=
EXTT0=
EXTT1=
EXTT2=
EXTT3=
EXTT4=
EXTT5=
EXTT6=
EXTT7=
EXTT8=
EXTT9=
EXTT10=
EXTT11=
EXTT12=
EXTT13=
EXTT14=
EXTT15=
EXTT16=
EXTT17=
EXTT18=
EXTT19=
PLAYORDER=
